<svg xmlns="http://www.w3.org/2000/svg" width="365.328" height="296.48" viewBox="0 0 365.328 296.48">
  <g id="Group_27" data-name="Group 27" transform="translate(-4076.002 -3516)">
    <path id="path14" d="M66.425-478.442a79.834,79.834,0,0,1,11.688,31.5H90.962a91.678,91.678,0,0,0-13.847-38.47c-10.279-15.767-23.669-24.105-38.71-24.113h-.091A37.7,37.7,0,0,0,8.853-495.38a39.674,39.674,0,0,0-7.92,33.548l12.465-2.73a27.339,27.339,0,0,1,5.383-22.805,24.7,24.7,0,0,1,19.537-9.4h.064c13.309.008,22.6,9.969,28.043,18.324Z" transform="translate(4175.999 4061.916)" fill="none"/>
    <path id="path16" d="M42.451-489.672a50.977,50.977,0,0,1,7.47,20.12h8.212a58.541,58.541,0,0,0-8.849-24.574c-6.57-10.071-15.127-15.4-24.74-15.4h-.058a24.1,24.1,0,0,0-18.828,9.037A25.33,25.33,0,0,0,.6-479.062l7.966-1.743A17.456,17.456,0,0,1,12-495.373a15.786,15.786,0,0,1,12.486-6h.041c8.506.005,14.442,6.368,17.922,11.7" transform="translate(4176 4071.687)" fill="#7414dc"/>
    <path id="path18" d="M362.133-171.507a61.283,61.283,0,0,1-10.243-23.151H338.924a72.254,72.254,0,0,0,10.6,27.308c-4.361,7.3-12.188,14.508-20.466,18.819l-.013-.007-.014.007c-8.277-4.311-16.1-11.516-20.465-18.819a72.254,72.254,0,0,0,10.6-27.308H306.193a61.282,61.282,0,0,1-10.242,23.151l-2.17,3.015,1.549,3.381c5.417,11.82,17.927,23.672,31.129,29.491l2.565,1.135.018-.008.019.008,2.565-1.135c13.2-5.819,25.712-17.671,31.129-29.491l1.549-3.381Z" transform="translate(3927.535 3797.255)" fill="none"/>
    <path id="path20" d="M337.466-179.87a39.13,39.13,0,0,1-6.546-14.788h-8.287a46.136,46.136,0,0,0,6.772,17.443,34.479,34.479,0,0,1-13.08,12.02l-.009,0-.008,0a34.478,34.478,0,0,1-13.079-12.02A46.141,46.141,0,0,0,310-194.658h-8.287a39.13,39.13,0,0,1-6.546,14.788l-1.387,1.926.989,2.16c3.462,7.549,11.457,15.121,19.9,18.838l1.639.725.012-.005.012.005,1.64-.725c8.437-3.717,16.433-11.289,19.894-18.838l.99-2.16-1.387-1.926" transform="translate(3940.259 3818.991)" fill="#7414dc"/>
    <path id="path22" d="M545.983-478.442a79.836,79.836,0,0,0-11.689,31.5H521.445a91.69,91.69,0,0,1,13.847-38.47c10.28-15.767,23.669-24.105,38.71-24.113h.091a37.706,37.706,0,0,1,29.461,14.148,39.674,39.674,0,0,1,7.919,33.548l-12.464-2.73a27.341,27.341,0,0,0-5.384-22.805,24.7,24.7,0,0,0-19.537-9.4h-.065c-13.308.008-22.6,9.969-28.042,18.324Z" transform="translate(3724.747 4061.916)" fill="none"/>
    <path id="path24" d="M537.129-489.672a50.974,50.974,0,0,0-7.47,20.12h-8.212a58.542,58.542,0,0,1,8.85-24.574c6.57-10.071,15.127-15.4,24.74-15.4h.058a24.1,24.1,0,0,1,18.828,9.037,25.337,25.337,0,0,1,5.062,21.429l-7.966-1.743a17.456,17.456,0,0,0-3.441-14.567,15.786,15.786,0,0,0-12.486-6h-.041c-8.506.005-14.442,6.368-17.922,11.7" transform="translate(3757.573 4071.687)" fill="#7414dc"/>
    <path id="path26" d="M285.654-608.445H298.5c-1.6-14.8-7.41-27.7-12.557-39.128-5.139-11.4-9.99-22.17-9.921-32.9.107-12.343,7.145-24.925,18.831-33.674,2.048-1.542,7.868-6.009,13.1-10.813,5.232,4.8,11.052,9.271,13.1,10.813,11.687,8.748,18.724,21.331,18.832,33.674.069,10.733-4.782,21.5-9.921,32.9-5.148,11.426-10.955,24.325-12.557,39.128h12.848c1.588-12.224,6.546-23.224,11.349-33.887,5.722-12.7,11.128-24.706,11.046-38.242-.148-16.315-9.1-32.675-23.937-43.784-1.751-1.324-10.857-8.263-16.092-13.9l-4.666-5.032-4.666,5.032c-5.235,5.638-14.341,12.576-16.092,13.9-14.843,11.109-23.789,27.469-23.938,43.784-.082,13.536,5.324,25.537,11.046,38.242,4.8,10.663,9.76,21.662,11.348,33.887Z" transform="translate(3948.621 4259.29)" fill="none"/>
    <path id="path28" d="M277.573-657.154h8.211c-1.024-9.456-4.735-17.7-8.025-24.994-3.285-7.282-6.386-14.162-6.341-21.019.068-7.884,4.566-15.921,12.035-21.509,1.308-.985,5.028-3.838,8.372-6.906,3.344,3.068,7.064,5.921,8.373,6.906,7.468,5.589,11.966,13.626,12.035,21.509.045,6.857-3.056,13.737-6.341,21.019-3.29,7.3-7,15.538-8.025,24.994h8.211c1.015-7.809,4.184-14.835,7.253-21.646,3.657-8.115,7.112-15.781,7.059-24.428-.095-10.422-5.813-20.871-15.3-27.968a94.142,94.142,0,0,1-10.284-8.878l-2.983-3.214-2.982,3.214A94.171,94.171,0,0,1,278.56-731.2c-9.486,7.1-15.2,17.546-15.3,27.968-.053,8.646,3.4,16.313,7.059,24.428,3.069,6.811,6.238,13.837,7.253,21.646" transform="translate(3964.751 4259.289)" fill="#7414dc"/>
    <path id="path30" d="M172.042-270.655v12.232H226.83v-12.232H172.042" transform="translate(4057.141 3877.015)" fill="none"/>
    <path id="path32" d="M172.044-270.657v7.814h93.174v-7.814H172.044" transform="translate(4037.946 3879.983)" fill="#7414dc"/>
    <path id="Path_20" data-name="Path 20" d="M31.7.9A54.916,54.916,0,0,1,16.3-1.25,36.475,36.475,0,0,1,4-7.2L9-18.3a39.149,39.149,0,0,0,22.9,7.1q6.6,0,10.15-2.15A6.646,6.646,0,0,0,45.6-19.3a5.876,5.876,0,0,0-3.25-5.3Q39.1-26.5,30.8-28.3a63.984,63.984,0,0,1-14.85-4.6,19.4,19.4,0,0,1-8.1-6.65A17.615,17.615,0,0,1,5.3-49.3,19.2,19.2,0,0,1,8.85-60.7a23.661,23.661,0,0,1,9.95-7.85A36.073,36.073,0,0,1,33.6-71.4a47.594,47.594,0,0,1,14.45,2.2A29.617,29.617,0,0,1,59.1-63.3l-5,11.1q-9.7-7.1-20.4-7.1-6.1,0-9.6,2.35a7.373,7.373,0,0,0-3.5,6.45,5.8,5.8,0,0,0,1.35,3.95,11.214,11.214,0,0,0,4.5,2.75,68.751,68.751,0,0,0,8.95,2.5q13.6,3,19.55,7.7t5.95,13A18.59,18.59,0,0,1,53.2-4.85Q45.5.9,31.7.9ZM94.3.8Q82.3.8,75.4-6T68.5-24.5a27.108,27.108,0,0,1,3.3-13.55,22.734,22.734,0,0,1,9.3-9.05A29.1,29.1,0,0,1,95-50.3a32.971,32.971,0,0,1,10.4,1.65,22.373,22.373,0,0,1,8.1,4.45l-4,10.3a22.481,22.481,0,0,0-6.35-3.55A19.742,19.742,0,0,0,96.4-38.7q-5.9,0-9.15,3.5T84-24.8q0,6.9,3.25,10.45T96.4-10.8a19.742,19.742,0,0,0,6.75-1.25,22.481,22.481,0,0,0,6.35-3.55l4,10.4a23.853,23.853,0,0,1-8.4,4.4A35.874,35.874,0,0,1,94.3.8Zm49.6,0a28.657,28.657,0,0,1-13.7-3.15,22.09,22.09,0,0,1-9.1-8.9,27.426,27.426,0,0,1-3.2-13.55,27.426,27.426,0,0,1,3.2-13.55,21.774,21.774,0,0,1,9.1-8.85,29.036,29.036,0,0,1,13.7-3.1,29.036,29.036,0,0,1,13.7,3.1,21.774,21.774,0,0,1,9.1,8.85,27.426,27.426,0,0,1,3.2,13.55,27.426,27.426,0,0,1-3.2,13.55,22.09,22.09,0,0,1-9.1,8.9A28.657,28.657,0,0,1,143.9.8Zm0-11.5q11,0,11-14.1,0-7.1-2.85-10.6t-8.15-3.5q-11,0-11,14.1T143.9-10.7Zm82.5-38.4V0H211.7V-7a15.537,15.537,0,0,1-6.05,5.8,17.672,17.672,0,0,1-8.45,2q-9.3,0-13.85-5.15T178.8-19.9V-49.1h15.1v29.5q0,4.4,1.85,6.5T201.4-11a9.25,9.25,0,0,0,7.15-3,11.234,11.234,0,0,0,2.75-7.9V-49.1Zm38.8,38.8a40.319,40.319,0,0,0,4.8-.3l-.8,11a42.4,42.4,0,0,1-5.8.4q-11.2,0-16.35-4.9T241.9-19V-37.8h-9.3V-49.1h9.3V-63.5H257v14.4h12.3v11.3H257v18.7Q257-10.3,265.2-10.3ZM295.6.8A46.985,46.985,0,0,1,283.15-.75,30.871,30.871,0,0,1,273.4-5.2l4-10.4a33.476,33.476,0,0,0,8.8,4.2,32.349,32.349,0,0,0,9.7,1.5,10.777,10.777,0,0,0,5.45-1.15,3.518,3.518,0,0,0,1.95-3.15,3.284,3.284,0,0,0-1.35-2.8,14.247,14.247,0,0,0-5.05-1.8l-8-1.8q-7.1-1.6-10.45-4.95T275.1-34.7a13.051,13.051,0,0,1,2.65-8.1,17.5,17.5,0,0,1,7.5-5.5,28.773,28.773,0,0,1,11.05-2,33.591,33.591,0,0,1,10.3,1.6,31.638,31.638,0,0,1,9,4.5l-4,10q-7.8-5.4-15.4-5.4a10.687,10.687,0,0,0-5.5,1.2,3.765,3.765,0,0,0-2,3.4,2.949,2.949,0,0,0,1.2,2.5,13.035,13.035,0,0,0,4.2,1.7l8.3,1.9q7.5,1.7,10.95,5.15t3.45,9.35a12.973,12.973,0,0,1-5.65,11.15Q305.5.8,295.6.8Z" transform="translate(4097 3755)" fill="#7414dc"/>
    <path id="Path_21" data-name="Path 21" d="M-182-25.38h17.136v4.428h-11.592v5.832h10.872v4.428h-10.872V0H-182ZM-153.7.288a10.317,10.317,0,0,1-4.932-1.134,7.952,7.952,0,0,1-3.276-3.2,9.873,9.873,0,0,1-1.152-4.878,9.873,9.873,0,0,1,1.152-4.878,7.839,7.839,0,0,1,3.276-3.186,10.453,10.453,0,0,1,4.932-1.116,10.453,10.453,0,0,1,4.932,1.116,7.839,7.839,0,0,1,3.276,3.186,9.874,9.874,0,0,1,1.152,4.878,9.874,9.874,0,0,1-1.152,4.878,7.952,7.952,0,0,1-3.276,3.2A10.317,10.317,0,0,1-153.7.288Zm0-4.14q3.96,0,3.96-5.076a5.962,5.962,0,0,0-1.026-3.816A3.567,3.567,0,0,0-153.7-14q-3.96,0-3.96,5.076T-153.7-3.852ZM-123.174,0h-6.372l-4.212-5.292L-137.934,0h-6.408l7.488-9.108-7.056-8.568h6.444l3.708,4.788,3.744-4.788h6.408l-7.056,8.568Zm23.616.324a13.4,13.4,0,0,1-6.714-1.62,10.906,10.906,0,0,1-4.392-4.572,14.659,14.659,0,0,1-1.53-6.84,14.659,14.659,0,0,1,1.53-6.84,10.793,10.793,0,0,1,4.392-4.554,13.523,13.523,0,0,1,6.714-1.6,15.046,15.046,0,0,1,4.824.774,10.3,10.3,0,0,1,3.78,2.142l-1.8,4a12.127,12.127,0,0,0-3.294-1.836,10.181,10.181,0,0,0-3.4-.576,6.42,6.42,0,0,0-5.2,2.16q-1.818,2.16-1.818,6.336t1.818,6.354a6.4,6.4,0,0,0,5.2,2.178,10.181,10.181,0,0,0,3.4-.576,12.127,12.127,0,0,0,3.294-1.836l1.8,4A10.3,10.3,0,0,1-94.734-.45,15.046,15.046,0,0,1-99.558.324Zm20.2-.036A10.316,10.316,0,0,1-84.294-.846a7.952,7.952,0,0,1-3.276-3.2,9.873,9.873,0,0,1-1.152-4.878,9.873,9.873,0,0,1,1.152-4.878,7.839,7.839,0,0,1,3.276-3.186,10.453,10.453,0,0,1,4.932-1.116,10.453,10.453,0,0,1,4.932,1.116,7.839,7.839,0,0,1,3.276,3.186A9.873,9.873,0,0,1-70-8.928,9.873,9.873,0,0,1-71.154-4.05a7.952,7.952,0,0,1-3.276,3.2A10.316,10.316,0,0,1-79.362.288Zm0-4.14q3.96,0,3.96-5.076a5.962,5.962,0,0,0-1.026-3.816A3.567,3.567,0,0,0-79.362-14q-3.96,0-3.96,5.076T-79.362-3.852Zm29.88-13.788L-57.258,0h-4.608l-7.668-17.64h5.652l4.464,11.232L-54.81-17.64Zm17.208,9.828h-11.52a4.551,4.551,0,0,0,1.386,3.078,4.869,4.869,0,0,0,3.222.954,8.547,8.547,0,0,0,2.718-.45A8.757,8.757,0,0,0-34-5.508l1.44,3.636a9.825,9.825,0,0,1-3.15,1.584,12.5,12.5,0,0,1-3.726.576,9.751,9.751,0,0,1-7.038-2.466A8.86,8.86,0,0,1-49.05-8.892a10,10,0,0,1,1.116-4.788,8.181,8.181,0,0,1,3.1-3.258,8.677,8.677,0,0,1,4.5-1.17A7.536,7.536,0,0,1-34.452-15.7a9.412,9.412,0,0,1,2.178,6.552Zm-7.92-6.552a3.2,3.2,0,0,0-2.466.99,4.931,4.931,0,0,0-1.134,2.862h6.948a4.7,4.7,0,0,0-.954-2.88A3,3,0,0,0-40.194-14.364Zm23.832.72-3.06.324a4.733,4.733,0,0,0-3.2,1.278,4.119,4.119,0,0,0-.936,2.826V0H-29V-17.676h5.22v2.988q1.332-3.06,5.508-3.348l1.584-.108ZM-3.006-3.708a14.515,14.515,0,0,0,1.728-.108L-1.566.144A15.264,15.264,0,0,1-3.654.288q-4.032,0-5.886-1.764T-11.394-6.84v-6.768h-3.348v-4.068h3.348V-22.86h5.436v5.184H-1.53v4.068H-5.958v6.732Q-5.958-3.708-3.006-3.708Zm10.944,4A16.914,16.914,0,0,1,3.456-.27a11.114,11.114,0,0,1-3.51-1.6l1.44-3.744A12.051,12.051,0,0,0,4.554-4.1a11.646,11.646,0,0,0,3.492.54,3.88,3.88,0,0,0,1.962-.414,1.266,1.266,0,0,0,.7-1.134,1.182,1.182,0,0,0-.486-1.008,5.129,5.129,0,0,0-1.818-.648l-2.88-.648A7.6,7.6,0,0,1,1.764-9.2,4.451,4.451,0,0,1,.558-12.492a4.7,4.7,0,0,1,.954-2.916,6.3,6.3,0,0,1,2.7-1.98,10.358,10.358,0,0,1,3.978-.72,12.093,12.093,0,0,1,3.708.576,11.39,11.39,0,0,1,3.24,1.62l-1.44,3.6a9.724,9.724,0,0,0-5.544-1.944,3.847,3.847,0,0,0-1.98.432,1.355,1.355,0,0,0-.72,1.224,1.062,1.062,0,0,0,.432.9,4.692,4.692,0,0,0,1.512.612l2.988.684A8.006,8.006,0,0,1,14.328-8.55,4.548,4.548,0,0,1,15.57-5.184,4.67,4.67,0,0,1,13.536-1.17,9.456,9.456,0,0,1,7.938.288Zm33.12.036A13.4,13.4,0,0,1,34.344-1.3a10.906,10.906,0,0,1-4.392-4.572,14.659,14.659,0,0,1-1.53-6.84,14.659,14.659,0,0,1,1.53-6.84A10.793,10.793,0,0,1,34.344-24.1a13.523,13.523,0,0,1,6.714-1.6,15.046,15.046,0,0,1,4.824.774,10.3,10.3,0,0,1,3.78,2.142l-1.8,4a12.127,12.127,0,0,0-3.294-1.836,10.181,10.181,0,0,0-3.4-.576,6.42,6.42,0,0,0-5.2,2.16q-1.818,2.16-1.818,6.336t1.818,6.354a6.4,6.4,0,0,0,5.2,2.178,10.181,10.181,0,0,0,3.4-.576,12.127,12.127,0,0,0,3.294-1.836l1.8,4A10.3,10.3,0,0,1,45.882-.45,15.046,15.046,0,0,1,41.058.324ZM60.606-18.108q3.96,0,5.85,1.872t1.89,5.8V0H63.2V-2.628A4.31,4.31,0,0,1,61.4-.486a5.526,5.526,0,0,1-2.952.774,7.258,7.258,0,0,1-3.258-.72,5.706,5.706,0,0,1-2.3-2.016,5.157,5.157,0,0,1-.846-2.88,4.448,4.448,0,0,1,.99-3.06,5.916,5.916,0,0,1,3.186-1.62,28.142,28.142,0,0,1,6.012-.5h.936v-.648a2.992,2.992,0,0,0-.684-2.232A3.433,3.433,0,0,0,60.1-14.04a10.252,10.252,0,0,0-2.88.468,14.011,14.011,0,0,0-3.024,1.3l-1.44-3.636a14.747,14.747,0,0,1,3.726-1.566A15.118,15.118,0,0,1,60.606-18.108ZM59.634-3.456A3.3,3.3,0,0,0,62.19-4.518a3.92,3.92,0,0,0,.972-2.754v-.612H62.55a12.3,12.3,0,0,0-4.086.468,1.694,1.694,0,0,0-1.17,1.692A2.167,2.167,0,0,0,57.96-4.1,2.3,2.3,0,0,0,59.634-3.456Zm34.56-14.652a5.428,5.428,0,0,1,4.5,1.836q1.476,1.836,1.476,5.616V0H94.734V-10.476a4.615,4.615,0,0,0-.558-2.592,2.15,2.15,0,0,0-1.89-.792,2.915,2.915,0,0,0-2.412,1.08,4.725,4.725,0,0,0-.864,3.024V0H83.574V-10.476a4.615,4.615,0,0,0-.558-2.592,2.15,2.15,0,0,0-1.89-.792,2.915,2.915,0,0,0-2.412,1.08,4.725,4.725,0,0,0-.864,3.024V0H72.414V-17.676h5.292V-15.3a5.527,5.527,0,0,1,2.214-2.088,6.812,6.812,0,0,1,3.186-.72q3.924,0,5.256,3.276a6.332,6.332,0,0,1,2.412-2.394A6.787,6.787,0,0,1,94.194-18.108Zm21.024,0a7.214,7.214,0,0,1,4.05,1.17,7.762,7.762,0,0,1,2.772,3.276,11.259,11.259,0,0,1,.99,4.842,11.02,11.02,0,0,1-.99,4.806,7.479,7.479,0,0,1-2.754,3.186A7.445,7.445,0,0,1,115.218.288,7.111,7.111,0,0,1,111.96-.45a5.373,5.373,0,0,1-2.25-2.07v9h-5.436V-17.676h5.364v2.484a5.509,5.509,0,0,1,2.268-2.142A7.022,7.022,0,0,1,115.218-18.108ZM113.634-3.852a3.6,3.6,0,0,0,2.952-1.278,5.7,5.7,0,0,0,1.044-3.69,6.084,6.084,0,0,0-1.044-3.8,3.515,3.515,0,0,0-2.952-1.35,3.553,3.553,0,0,0-2.952,1.314,5.925,5.925,0,0,0-1.044,3.762,5.86,5.86,0,0,0,1.044,3.726A3.553,3.553,0,0,0,113.634-3.852ZM133.146.288a16.914,16.914,0,0,1-4.482-.558,11.114,11.114,0,0,1-3.51-1.6l1.44-3.744A12.052,12.052,0,0,0,129.762-4.1a11.646,11.646,0,0,0,3.492.54,3.88,3.88,0,0,0,1.962-.414,1.266,1.266,0,0,0,.7-1.134,1.182,1.182,0,0,0-.486-1.008,5.129,5.129,0,0,0-1.818-.648l-2.88-.648A7.6,7.6,0,0,1,126.972-9.2a4.451,4.451,0,0,1-1.206-3.294,4.7,4.7,0,0,1,.954-2.916,6.3,6.3,0,0,1,2.7-1.98,10.358,10.358,0,0,1,3.978-.72,12.093,12.093,0,0,1,3.708.576,11.39,11.39,0,0,1,3.24,1.62l-1.44,3.6a9.724,9.724,0,0,0-5.544-1.944,3.847,3.847,0,0,0-1.98.432,1.355,1.355,0,0,0-.72,1.224,1.062,1.062,0,0,0,.432.9,4.693,4.693,0,0,0,1.512.612l2.988.684a8.006,8.006,0,0,1,3.942,1.854,4.548,4.548,0,0,1,1.242,3.366,4.67,4.67,0,0,1-2.034,4.014A9.456,9.456,0,0,1,133.146.288Zm10.728-17.964h5.436V0h-5.436Zm5.652-8.5V-21.1h-5.832v-5.076ZM163.278-3.708a14.515,14.515,0,0,0,1.728-.108l-.288,3.96a15.264,15.264,0,0,1-2.088.144q-4.032,0-5.886-1.764T154.89-6.84v-6.768h-3.348v-4.068h3.348V-22.86h5.436v5.184h4.428v4.068h-4.428v6.732Q160.326-3.708,163.278-3.708Zm20.052-4.1H171.81A4.551,4.551,0,0,0,173.2-4.734a4.869,4.869,0,0,0,3.222.954,8.547,8.547,0,0,0,2.718-.45A8.757,8.757,0,0,0,181.6-5.508l1.44,3.636a9.825,9.825,0,0,1-3.15,1.584,12.5,12.5,0,0,1-3.726.576,9.751,9.751,0,0,1-7.038-2.466,8.86,8.86,0,0,1-2.574-6.714,10,10,0,0,1,1.116-4.788,8.181,8.181,0,0,1,3.1-3.258,8.677,8.677,0,0,1,4.5-1.17,7.536,7.536,0,0,1,5.886,2.412,9.412,9.412,0,0,1,2.178,6.552Zm-7.92-6.552a3.2,3.2,0,0,0-2.466.99,4.931,4.931,0,0,0-1.134,2.862h6.948a4.7,4.7,0,0,0-.954-2.88A3,3,0,0,0,175.41-14.364Z" transform="translate(4258 3806)" fill="#7414dc"/>
  </g>
</svg>
