<svg id="Vertical_Logo" data-name="Vertical Logo" xmlns="http://www.w3.org/2000/svg" width="370" height="303" viewBox="0 0 370 303">
  <g id="Scouts_SVG" data-name="Scouts SVG" transform="translate(103)">
    <path id="path14" d="M66.425-478.442a79.834,79.834,0,0,1,11.688,31.5H90.962a91.678,91.678,0,0,0-13.847-38.47c-10.279-15.767-23.669-24.105-38.71-24.113h-.091A37.7,37.7,0,0,0,8.853-495.38a39.674,39.674,0,0,0-7.92,33.548l12.465-2.73a27.339,27.339,0,0,1,5.383-22.805,24.7,24.7,0,0,1,19.537-9.4h.064c13.309.008,22.6,9.969,28.043,18.324Z" transform="translate(-0.001 545.916)" fill="none"/>
    <path id="path16" d="M42.451-489.672a50.977,50.977,0,0,1,7.47,20.12h8.212a58.541,58.541,0,0,0-8.849-24.574c-6.57-10.071-15.127-15.4-24.74-15.4h-.058a24.1,24.1,0,0,0-18.828,9.037A25.33,25.33,0,0,0,.6-479.062l7.966-1.743A17.456,17.456,0,0,1,12-495.373a15.786,15.786,0,0,1,12.486-6h.041c8.506.005,14.442,6.368,17.922,11.7" transform="translate(0 555.687)" fill="#7414dc"/>
    <path id="path18" d="M362.133-171.507a61.283,61.283,0,0,1-10.243-23.151H338.924a72.254,72.254,0,0,0,10.6,27.308c-4.361,7.3-12.188,14.508-20.466,18.819l-.013-.007-.014.007c-8.277-4.311-16.1-11.516-20.465-18.819a72.254,72.254,0,0,0,10.6-27.308H306.193a61.282,61.282,0,0,1-10.242,23.151l-2.17,3.015,1.549,3.381c5.417,11.82,17.927,23.672,31.129,29.491l2.565,1.135.018-.008.019.008,2.565-1.135c13.2-5.819,25.712-17.671,31.129-29.491l1.549-3.381Z" transform="translate(-248.465 281.255)" fill="none"/>
    <path id="path20" d="M337.466-179.87a39.13,39.13,0,0,1-6.546-14.788h-8.287a46.136,46.136,0,0,0,6.772,17.443,34.479,34.479,0,0,1-13.08,12.02l-.009,0-.008,0a34.478,34.478,0,0,1-13.079-12.02A46.141,46.141,0,0,0,310-194.658h-8.287a39.13,39.13,0,0,1-6.546,14.788l-1.387,1.926.989,2.16c3.462,7.549,11.457,15.121,19.9,18.838l1.639.725.012-.005.012.005,1.64-.725c8.437-3.717,16.433-11.289,19.894-18.838l.99-2.16-1.387-1.926" transform="translate(-235.741 302.991)" fill="#7414dc"/>
    <path id="path22" d="M545.983-478.442a79.836,79.836,0,0,0-11.689,31.5H521.445a91.69,91.69,0,0,1,13.847-38.47c10.28-15.767,23.669-24.105,38.71-24.113h.091a37.706,37.706,0,0,1,29.461,14.148,39.674,39.674,0,0,1,7.919,33.548l-12.464-2.73a27.341,27.341,0,0,0-5.384-22.805,24.7,24.7,0,0,0-19.537-9.4h-.065c-13.308.008-22.6,9.969-28.042,18.324Z" transform="translate(-451.253 545.916)" fill="none"/>
    <path id="path24" d="M537.129-489.672a50.974,50.974,0,0,0-7.47,20.12h-8.212a58.542,58.542,0,0,1,8.85-24.574c6.57-10.071,15.127-15.4,24.74-15.4h.058a24.1,24.1,0,0,1,18.828,9.037,25.337,25.337,0,0,1,5.062,21.429l-7.966-1.743a17.456,17.456,0,0,0-3.441-14.567,15.786,15.786,0,0,0-12.486-6h-.041c-8.506.005-14.442,6.368-17.922,11.7" transform="translate(-418.427 555.687)" fill="#7414dc"/>
    <path id="path26" d="M285.654-608.445H298.5c-1.6-14.8-7.41-27.7-12.557-39.128-5.139-11.4-9.99-22.17-9.921-32.9.107-12.343,7.145-24.925,18.831-33.674,2.048-1.542,7.868-6.009,13.1-10.813,5.232,4.8,11.052,9.271,13.1,10.813,11.687,8.748,18.724,21.331,18.832,33.674.069,10.733-4.782,21.5-9.921,32.9-5.148,11.426-10.955,24.325-12.557,39.128h12.848c1.588-12.224,6.546-23.224,11.349-33.887,5.722-12.7,11.128-24.706,11.046-38.242-.148-16.315-9.1-32.675-23.937-43.784-1.751-1.324-10.857-8.263-16.092-13.9l-4.666-5.032-4.666,5.032c-5.235,5.638-14.341,12.576-16.092,13.9-14.843,11.109-23.789,27.469-23.938,43.784-.082,13.536,5.324,25.537,11.046,38.242,4.8,10.663,9.76,21.662,11.348,33.887Z" transform="translate(-227.379 743.29)" fill="none"/>
    <path id="path28" d="M277.573-657.154h8.211c-1.024-9.456-4.735-17.7-8.025-24.994-3.285-7.282-6.386-14.162-6.341-21.019.068-7.884,4.566-15.921,12.035-21.509,1.308-.985,5.028-3.838,8.372-6.906,3.344,3.068,7.064,5.921,8.373,6.906,7.468,5.589,11.966,13.626,12.035,21.509.045,6.857-3.056,13.737-6.341,21.019-3.29,7.3-7,15.538-8.025,24.994h8.211c1.015-7.809,4.184-14.835,7.253-21.646,3.657-8.115,7.112-15.781,7.059-24.428-.095-10.422-5.813-20.871-15.3-27.968a94.142,94.142,0,0,1-10.284-8.878l-2.983-3.214-2.982,3.214A94.171,94.171,0,0,1,278.56-731.2c-9.486,7.1-15.2,17.546-15.3,27.968-.053,8.646,3.4,16.313,7.059,24.428,3.069,6.811,6.238,13.837,7.253,21.646" transform="translate(-211.249 743.289)" fill="#7414dc"/>
    <path id="path30" d="M172.042-270.655v12.232H226.83v-12.232H172.042" transform="translate(-118.859 361.015)" fill="none"/>
    <path id="path32" d="M172.044-270.657v7.814h93.174v-7.814H172.044" transform="translate(-138.054 363.983)" fill="#7414dc"/>
  </g>
  <text id="Scouts" transform="translate(24 239)" fill="#7414dc" font-size="100" font-family="NunitoSans-ExtraBold, Nunito Sans" font-weight="800"><tspan x="0" y="0">Scouts</tspan></text>
  <text id="Fox_Coverts_Campsite" data-name="Fox Coverts Campsite" transform="translate(185 290)" fill="#7414dc" font-size="36" font-family="NunitoSans-ExtraBold, Nunito Sans" font-weight="800"><tspan x="-184.518" y="0">Fox Coverts Campsite</tspan></text>
</svg>
