<svg id="Horizontal_Logo" data-name="Horizontal Logo" xmlns="http://www.w3.org/2000/svg" width="491.153" height="171" viewBox="0 0 491.153 171">
  <g id="Scouts_SVG" data-name="Scouts SVG" transform="translate(345)">
    <path id="path14" d="M66.425-478.442a79.834,79.834,0,0,1,11.688,31.5H90.962a91.678,91.678,0,0,0-13.847-38.47c-10.279-15.767-23.669-24.105-38.71-24.113h-.091A37.7,37.7,0,0,0,8.853-495.38a39.674,39.674,0,0,0-7.92,33.548l12.465-2.73a27.339,27.339,0,0,1,5.383-22.805,24.7,24.7,0,0,1,19.537-9.4h.064c13.309.008,22.6,9.969,28.043,18.324Z" transform="translate(-0.001 539.865)" fill="none"/>
    <path id="path16" d="M38.5-491.566a46.04,46.04,0,0,1,6.775,18.2h7.447a52.869,52.869,0,0,0-8.026-22.23c-5.958-9.11-13.719-13.929-22.437-13.933h-.053A21.88,21.88,0,0,0,5.13-501.353,22.87,22.87,0,0,0,.54-481.968l7.225-1.577a15.76,15.76,0,0,1,3.12-13.178,14.331,14.331,0,0,1,11.324-5.431h.037c7.714,0,13.1,5.76,16.254,10.588" transform="translate(0 551.284)" fill="#7414dc"/>
    <path id="path18" d="M362.133-171.507a61.283,61.283,0,0,1-10.243-23.151H338.924a72.254,72.254,0,0,0,10.6,27.308c-4.361,7.3-12.188,14.508-20.466,18.819l-.013-.007-.014.007c-8.277-4.311-16.1-11.516-20.465-18.819a72.254,72.254,0,0,0,10.6-27.308H306.193a61.282,61.282,0,0,1-10.242,23.151l-2.17,3.015,1.549,3.381c5.417,11.82,17.927,23.672,31.129,29.491l2.565,1.135.018-.008.019.008,2.565-1.135c13.2-5.819,25.712-17.671,31.129-29.491l1.549-3.381Z" transform="translate(-255.965 267.255)" fill="none"/>
    <path id="path20" d="M333.4-181.28a35.352,35.352,0,0,1-5.937-13.378h-7.515a41.671,41.671,0,0,0,6.142,15.78A31.239,31.239,0,0,1,314.227-168l-.008,0-.007,0a31.238,31.238,0,0,1-11.862-10.874,41.675,41.675,0,0,0,6.142-15.78h-7.515a35.353,35.353,0,0,1-5.937,13.378l-1.258,1.742.9,1.954c3.14,6.829,10.391,13.678,18.043,17.041l1.487.655.011,0,.01,0,1.488-.655c7.651-3.363,14.9-10.212,18.042-17.041l.9-1.954L333.4-181.28" transform="translate(-241.143 292.658)" fill="#7414dc"/>
    <path id="path22" d="M545.983-478.442a79.836,79.836,0,0,0-11.689,31.5H521.445a91.69,91.69,0,0,1,13.847-38.47c10.28-15.767,23.669-24.105,38.71-24.113h.091a37.706,37.706,0,0,1,29.461,14.148,39.674,39.674,0,0,1,7.919,33.548l-12.464-2.73a27.341,27.341,0,0,0-5.384-22.805,24.7,24.7,0,0,0-19.537-9.4h-.065c-13.308.008-22.6,9.969-28.042,18.324Z" transform="translate(-466.253 539.865)" fill="none"/>
    <path id="path24" d="M535.669-491.566a46.037,46.037,0,0,0-6.775,18.2h-7.447a52.871,52.871,0,0,1,8.026-22.23c5.958-9.11,13.719-13.929,22.437-13.933h.053a21.88,21.88,0,0,1,17.076,8.175,22.876,22.876,0,0,1,4.591,19.385l-7.225-1.577a15.76,15.76,0,0,0-3.12-13.178,14.33,14.33,0,0,0-11.324-5.431h-.038c-7.714,0-13.1,5.76-16.254,10.588" transform="translate(-428.016 551.284)" fill="#7414dc"/>
    <path id="path26" d="M285.654-608.445H298.5c-1.6-14.8-7.41-27.7-12.557-39.128-5.139-11.4-9.99-22.17-9.921-32.9.107-12.343,7.145-24.925,18.831-33.674,2.048-1.542,7.868-6.009,13.1-10.813,5.232,4.8,11.052,9.271,13.1,10.813,11.687,8.748,18.724,21.331,18.832,33.674.069,10.733-4.782,21.5-9.921,32.9-5.148,11.426-10.955,24.325-12.557,39.128h12.848c1.588-12.224,6.546-23.224,11.349-33.887,5.722-12.7,11.128-24.706,11.046-38.242-.148-16.315-9.1-32.675-23.937-43.784-1.751-1.324-10.857-8.263-16.092-13.9l-4.666-5.032-4.666,5.032c-5.235,5.638-14.341,12.576-16.092,13.9-14.843,11.109-23.789,27.469-23.938,43.784-.082,13.536,5.324,25.537,11.046,38.242,4.8,10.663,9.76,21.662,11.348,33.887Z" transform="translate(-234.879 743.29)" fill="none"/>
    <path id="path28" d="M276.241-665.37h7.447c-.929-8.554-4.295-16.008-7.278-22.61s-5.791-12.811-5.751-19.014c.062-7.132,4.141-14.4,10.915-19.458,1.186-.891,4.56-3.471,7.593-6.247,3.033,2.776,6.406,5.356,7.593,6.247,6.773,5.056,10.853,12.326,10.914,19.458.041,6.2-2.771,12.427-5.75,19.014s-6.349,14.056-7.278,22.61h7.447c.921-7.064,3.794-13.42,6.578-19.581,3.316-7.341,6.45-14.276,6.4-22.1-.086-9.428-5.272-18.88-13.875-25.3a85.327,85.327,0,0,1-9.327-8.032l-2.705-2.908-2.7,2.908a85.352,85.352,0,0,1-9.326,8.032c-8.6,6.42-13.789,15.872-13.875,25.3-.048,7.821,3.085,14.757,6.4,22.1,2.783,6.161,5.657,12.518,6.578,19.581" transform="translate(-216.09 743.289)" fill="#7414dc"/>
    <path id="path30" d="M172.042-270.655v12.232H211.83v-12.232H172.042" transform="translate(-118.859 351.612)" fill="none"/>
    <path id="path32" d="M172.044-270.657v7.069h84.5v-7.069h-84.5" transform="translate(-141.218 355.081)" fill="#7414dc"/>
  </g>
  <text id="Scouts" transform="translate(0 109)" fill="#7414dc" font-size="100" font-family="NunitoSans-ExtraBold, Nunito Sans" font-weight="800"><tspan x="0" y="0">Scouts</tspan></text>
  <text id="Fox_Coverts_Campsite" data-name="Fox Coverts Campsite" transform="translate(2 158)" fill="#7414dc" font-size="36" font-family="NunitoSans-ExtraBold, Nunito Sans" font-weight="800"><tspan x="0" y="0">Fox Coverts Campsite</tspan></text>
</svg>
